/* XPM */
static char * down_xpm[] = {
"32 32 7 1",
" 	c #282C38",
".	c #333B51",
"+	c #3E4860",
"@	c #4C5C76",
"#	c #60748A",
"$	c #76899D",
"%	c #FFFFFF",
"                                ",
"                                ",
"                                ",
"                                ",
"                           ..   ",
"                                ",
"  .                  .. .. ..   ",
"  ..                            ",
"  .. .               .. .. ..   ",
"                                ",
"  ++++++   .. . .  +++++++++++  ",
" +... ..+ ... . . .. ... .....+ ",
" +... ..+ ... + + .. ... .....+ ",
" .... ..+ ..+     ..          + ",
" ..     +     ....... ........+ ",
" .. ....+ ..+ .. .... ...       ",
" .. ....  ..   ...... .. @@@@@  ",
"                  ... .. +++++@ ",
"@@@@@@@@  @@@@@@@ ... .. +++.+@ ",
"++.++++++ ......@       @@@@++@ ",
"+++++++++ ++.+++@  +++.+.  @++@ ",
"          ++.+++@ ++++.+...@..@ ",
"@@@@@@@@@ ++.+++@ ++++.+.  @++@ ",
"++.++++++ ...+.+@ +.++.+..@@.+@ ",
" +++..... +++++@  ++++.+++.+++  ",
"                                ",
"................................",
"@@@@@@@@@@@@@@@@@@@@@@@@@@@@@@@@",
"@@@@@@@@@@@@@@@@@@@@@@@@@@@@@@@@",
"################################",
"$$$$$$$$$$$$$$$$$$$$$$$$$$$$$$$$",
"$$$$$$$$$$$$$$$$$$$$$$$$$$$$$$$$"};
