/* XPM */
static char * down_right_xpm[] = {
"32 32 10 1",
" 	c None",
".	c #000000",
"+	c #282C38",
"@	c #60748A",
"#	c #76899D",
"$	c #333B51",
"%	c #89A7B6",
"&	c #4C5C76",
"*	c #3E4860",
"=	c #FFFFFF",
"+++++++++++@@@@@@#+@@@@@@#$@@##%",
"+&*&&&&&&++@@@@@@#+@@&&&*#$@@###",
"+********&+@@@@@@#+&&&@@@#$@@###",
"+******$*&+*&&&&*#+@@*@@#$$@@##%",
"+$$$$****&+@@&@@@@+++++$$$$@@##%",
"+***$****&+@@&@@@#+#@####$$@@##%",
"+***$****&+@@&@&@#+@@@@@@#$@@##%",
"+***$**$$&++@*@@#++@@@@&@#$@@##%",
"+***$$$$*&++++++++*&@@@@@#$@@##%",
"++*****$*&+++@@@@@@&@@@@@#$@@##%",
"+++++++++++++@&@@@@&@@&&*#$@@##%",
"++++&&&&&&&&+@@@@@@&@@&@@#$@@##%",
"+++***$$$$$$+######&&&&@@#$@@###",
"+++***$**$**+*@@@@@#@@&@@#$@@##%",
"+++*$*$**$$$+*@@@@@#@@&@@#$@@##%",
"+++***$*****+*****&#@@*@@$$@@##%",
"++++++++++++++++++++++$$$$$@@###",
"+&&&&&+++&&&&+++###@######$@@###",
"+*****&+**$*&++&@@@@@@@&@#$@@##%",
"+****$&+**$*&+@&@@@@@@@@@#$@@###",
"+*****&+$$$*&+@&&&&&&&&&*#$@@##%",
"+$$$**&+*$**&+@@@@@&@@@@@#$@@##%",
"+**$**&+*$**&+@@@@@&@@@&@#$@@##%",
"+**$$$&+*$*$&+@@@@@&@@@@@#$@@##%",
"++*$**&+*$**&+@@@@@*@@@@@$$&@##%",
"++++++++++++++++++++++++$$$&@###",
"$$$$$$$$$$$$$$$$$$$$$$$$$$$&@###",
"&&&&&&&&&&&&&&&&&&&&&&&&&&&&@@##",
"&&&&&&&&&&&&&&&&&&&&&&&&&&&@@@##",
"@@@@@@@@@@@@@@@@@@@@@@@@@@@@@###",
"############################### ",
"##############################  "};
