/* XPM */
static char * collectibles_xpm[] = {
"32 32 10 1",
" 	c #21303D",
".	c #2B3B47",
"+	c #394B54",
"@	c #182534",
"#	c #161922",
"$	c #8B6614",
"%	c #BEA830",
"&	c #EAC858",
"*	c #AE7A32",
"=	c #865109",
"                                ",
" .............................+@",
" . ............ ............ .+@",
" .............................+@",
" .............................+@",
" .............................+@",
" .............................+@",
" .............................+@",
" .............................+@",
" .............................+@",
" .............................+@",
" .............................+@",
" .......###############.......+@",
" .......#$%&%&&&&&&&%$#.......+@",
" .......##*********==##.......+@",
" . ......#*********==#...... .+@",
" ........#***####**==#........+@",
" .......##***####**==##.......+@",
" .......#$%&&&##&&%&%$#.......+@",
" .......##*********==##.......+@",
" ........#****##***==#........+@",
" ........#****##***==#........+@",
" .......##**##**##*==##.......+@",
" .......#$%###&&###&%$#.......+@",
" .......##*##****##==##.......+@",
" ........#*********==#........+@",
" ........#*********==#........+@",
" .......##*********==##.......+@",
" . .....#$%&&&&&&&%&%$#..... .+@",
" .............................+@",
" ++++++++++++++++++++++++++++++@",
" @@@@@@@@@@@@@@@@@@@@@@@@@@@@@@@"};
