/* XPM */
static char * D_xpm[] = {
"32 32 56 1",
" 	c #21303D",
".	c #5A0C0C",
"+	c #9C2323",
"@	c #A8A0C8",
"#	c #C8C8D8",
"$	c #E8E8F8",
"%	c #2B3B47",
"&	c #394B54",
"*	c #182534",
"=	c #C83838",
"-	c #000000",
";	c #5B5B5B",
">	c #202028",
",	c #F88058",
"'	c #D5D5D5",
")	c #A3A3A3",
"!	c #CD1313",
"~	c #F8B890",
"{	c #FFFFFF",
"]	c #474751",
"^	c #820808",
"/	c #9C5498",
"(	c #B22A30",
"_	c #D67575",
":	c #293D50",
"<	c #343C46",
"[	c #2C3B47",
"}	c #797E82",
"|	c #353F4A",
"1	c #1E5D9F",
"2	c #242C36",
"3	c #212E38",
"4	c #1B62AA",
"5	c #40444E",
"6	c #E3E4E4",
"7	c #0A4B82",
"8	c #944A31",
"9	c #964A30",
"0	c #98492F",
"a	c #905BA5",
"b	c #A8181C",
"c	c #F8F8F8",
"d	c #034C86",
"e	c #AAAAB2",
"f	c #0078D8",
"g	c #2FAF4B",
"h	c #1E8A35",
"i	c #FF0000",
"j	c #600000",
"k	c #6FB9F4",
"l	c #F98383",
"m	c #1B1A1A",
"n	c #60748A",
"o	c #92A6BA",
"p	c #3E4860",
"q	c #4C5C76",
"               .+@##$##$##@+.   ",
" %%%%%%%%%%%%%%.++@##@@##@++.%&*",
" % %%%%%%%%%%%%.+=++++++++=+.%&*",
" %%%%%%%%%%%%%%-..========..-%&*",
" %%%%%%%%%%%%;;--..++++++..--;;*",
" %%%%%%%%%%%%%-->-,'),,)',->--&*",
" %%%%%%!%!%%-----,~-{-~---,-----",
" %%%%%%!%!%!%%;;-,~--~~-'-,-;;&*",
" %%%%%!!%!!!!%%%;-,-,-~--,>;%%&*",
" %%%%%!!!!!!!%!%>]-,~~~~,-]>%%&*",
" %%%%%%%%%!!!!!^/(_:<[[<:}|12%&*",
" %%%%%%%%%%%%%!!!!!%%%!%%%%%%%&*",
" %%%345678990765ab!!!!!!%%%%%%&*",
" %%-cdd]]dddd]]ddc>%%!!!!%!%!%&*",
" %-9ee-dfdggdfddee9-%%%!!!!!!!&*",
" -,,9-%dfdhhdfd%-9,,-%%%%%%%!!&*",
" -~,-%%dfdhhdfd%%-~,-%%%%%%%%%&*",
" -~,-%idddjjddd%%-~,-%%%%i%%%%&*",
" %--%%idkffffkd%%%--%%%%%i%%%%&*",
" %%%%i{dkfddfkd%%%i{i%%%i{i%%%&*",
" %%%%i{dffddffd%%%i{i%%%i{i%%%&*",
" %%%il-kddddddk-%il{li%il{li%%&*",
" %%%i{-ckk--kkc-il{{{lil{{{i%%&*",
" %%iiii--------ll{{{iiliiiiii%&*",
" %%iiiiiiiiiiiiiiiiiiiiiiiiii%&*",
" %%%%%%%%%%%%%%%%%%%%%%%%%%%%%&*",
" mmmmmmmmmmmmmmmmmmmmmmmmmmmmmm*",
" mnnnoooooooononnnnnnnnnnnnnnnm*",
"mmmmmmmmmmmmmmmmmmmmmmmmmmmmmmmm",
"mppqqqnnnnnnnqqqqpqppppppppppppm",
"mppqqqnnnnnnnqqqqpqppppppppppppm",
"mmmmmmmmmmmmmmmmmmmmmmmmmmmmmmmm"};
