/* XPM */
static char * E_E_xpm[] = {
"32 32 11 1",
" 	c #21303D",
".	c #000000",
"+	c #2B3B47",
"@	c #3E4860",
"#	c #4C5C76",
"$	c #394B54",
"%	c #182534",
"&	c #60748A",
"*	c #92A6BA",
"=	c #F98383",
"-	c #FFFFFF",
"        ..............          ",
" +++++++.@@@####@#@#@.++++++++$%",
" + +++++.&**&********.++++++ +$%",
" ++++++++.&&&&&&&&&&.+++++++++$%",
" +++++++++...====...++++++++++$%",
" +++++++++===----===++++++++++$%",
" ++++++++==--------==+++++++++$%",
" ++++++++==--------==+++++++++$%",
" +++++++++==------==++++++++++$%",
" ++++++++++==----==+++++++++++$%",
" +++++++++++++++++++++++++++++$%",
" +++++++++++++++++++++++++++++$%",
" +++++++++++++++++++++++++++++$%",
" +++++++++++++++++++++++++++++$%",
" +++++++++++++++++++++++++++++$%",
" + +++++++++++++++++++++++++ +$%",
" +++++++++++++++++++++++++++++$%",
" +++++++++++++++++++++++++++++$%",
" +++++++++++++++++++++++++++++$%",
" +++++++++++++++++++++++++++++$%",
" +++++++++++++++++++++++++++++$%",
" +++++++++++++++++++++++++++++$%",
" ++++++++++==----==+++++++++++$%",
" +++++++++==------==++++++++++$%",
" ++++++++==--------==+++++++++$%",
" ++++++++==--------==+++++++++$%",
" +++++++++===----===++++++++++$%",
" +++++++++...====...++++++++++$%",
" + ++++++.&&&&&&&&&&.+++++++ +$%",
" +++++++.&**&********.++++++++$%",
" $$$$$$$.@@@####@#@#@.$$$$$$$$$%",
" %%%%%%%..............%%%%%%%%%%"};
