/* XPM */
static char * E_F_xpm[] = {
"32 32 13 1",
" 	c #21303D",
".	c #000000",
"+	c #2B3B47",
"@	c #3E4860",
"#	c #4C5C76",
"$	c #394B54",
"%	c #182534",
"&	c #60748A",
"*	c #92A6BA",
"=	c #FF0000",
"-	c #F98383",
";	c #FFFFFF",
">	c #C47279",
"          ...........           ",
" +++++++++.@@@###@#@.+++++++++$%",
" + +++++++.&**&*****.+++++++ +$%",
" ++++++++++.&&&&&&&.++++++++++$%",
" +++++++++++.......+++++++++++$%",
" ++++++++++=--;;;--==+++++++++$%",
" ++>>>+++++==;;;---==+++++++++$%",
" +>+++++++++=;;;;-==++++>>++++$%",
" >++++++++++=-;;;;;=++++++>+++$%",
" ++++++++++++=-;;;;=++++++>+=+$%",
" ++++++++++++=-;;;--++++++===+$%",
" +=+>+++++++++-;;;;-++++>===++$%",
" ++====+++++++--;;;-++++==++++$%",
" ++++===++++++-;;;-=++++++++++$%",
" ++++++=+++++=-;;;-=++++++++++$%",
" + +++++++++==;;;;-=++++++++ +$%",
" ++++++++++==-;;;-=+++++++++++$%",
" ++++++++++=-;;;;-=+++++++++++$%",
" +++++++++=-;;;;-=++++++++++++$%",
" +>>>++==+=-;;;--+++++++++++++$%",
" >++++==++=-;;;-=++++++>>+++++$%",
" >+++==+++=;;;--==+++++++>++++$%",
" +++++++++-;;;;-==++++++++>+++$%",
" +>>++++++=--;;;==+++++++++>++$%",
" ++++++++++=-;;;-==+++++++++++$%",
" ++++++++++==;;;;==+++++>+++++$%",
" +++++++++++=-;;;=++++++++++++$%",
" +++++++++++......++++++++++++$%",
" + ++++++++.&&&&&&.+++++++++ +$%",
" +++++++++.&**&****.++++++++++$%",
" $$$$$$$$$.@@@##@#@.$$$$$$$$$$$%",
" %%%%%%%%%..........%%%%%%%%%%%%"};
