/* XPM */
static char * left_xpm[] = {
"32 32 8 1",
" 	c #89A7B6",
".	c #76899D",
"+	c #60748A",
"@	c #333B51",
"#	c #3E4860",
"$	c #282C38",
"%	c #4C5C76",
"&	c #FFFFFF",
" ..++@+++.++#$.++++%+$$$$$$$$$$$",
" ..++@+++.++#$.++++%+$$$$$%%%%$$",
"...++@ ++.++#$.++++%$$$$$%@###$$",
" ..++@ ++%++#$$$$$$$$$$$$%@###$$",
" ..++@.++%%##$$.  . ....$%@#@#$$",
" ..++@.++++++$.++++%++%+$%@###$$",
"...++@ ++++%%$ ++%%%++++$%@###$$",
"...++@.++++%+$ ++%++++++$%@###$$",
"...++@ #%%%%+$.%+%++++++$%@@@@$$",
"...++@.++++%+$.++%+++++$$%##@#$$",
"...++@.++++%+$$$$$$$$$$$$%##@#$$",
" ..++@.+%++#+$$.+#...+.+$%##@#$$",
"...++@.++++#$$.++%++++++$%##@@$$",
" ..++@@@@$$$$$.%+%++++++$%####$$",
" ..++@@++++++$.++%++++++$%####$$",
" ..++@.++++%+$ ++%++++++$%@@##$$",
" ..++@.#%%+++$ ++%++  ..$%#@##$$",
" ..++@.++%+++$ %%%% +++#$%#@##$$",
" ..++@.++%+++$ ++++.+++#$%#@##$$",
" ..++@.++%+++$ ++++%+++#$%#@##$$",
"...++@.++%+++$.++++%+++#$%#@##$$",
"...++@.#%%%%#$ ++++####$$%#@#$$$",
"...++@.++++++$.++++++$$$$$$$$###",
"...++@.++++++$.++++++$$%%%%%$###",
" ..++@.++++++$.++++##$%@####$$##",
"...++@.++++++$.++++++$%@#####$$$",
"...++@.++++++$.%%%+++$%@@@@@@$##",
"...++@.#%%+++$.++%+++$%##@###$$$",
" ..++@+++%  .$.++%+++$%##@#####$",
" ..++@.++.++#$.++%+++$%##@#####$",
" ..++@+++ ++#$.++%%%#$%##@#####$",
" ..++@.++ ++#$.%+++%+$###$####$$"};
