/* XPM */
static char * L_T_xpm[] = {
"32 32 34 1",
" 	c #21303D",
".	c #2B3B47",
"+	c #9C2323",
"@	c #394B54",
"#	c #182534",
"$	c #C83838",
"%	c #C8C8D8",
"&	c #E8E8F8",
"*	c #5A0C0C",
"=	c #A8A0C8",
"-	c #000000",
";	c #5B5B5B",
">	c #202028",
",	c #F88058",
"'	c #D5D5D5",
")	c #A3A3A3",
"!	c #600000",
"~	c #F8B890",
"{	c #F8F8F8",
"]	c #964A30",
"^	c #AAAAB2",
"/	c #034C86",
"(	c #0078D8",
"_	c #474751",
":	c #28C0D8",
"<	c #1E8A35",
"[	c #2FAF4B",
"}	c #6FB9F4",
"|	c #111111",
"1	c #3D4957",
"2	c #5C6975",
"3	c #7A7A7A",
"4	c #272E3D",
"5	c #303A4B",
"                                ",
" ..............++.............@#",
" . .........$++++++$........ .@#",
" ..........$+%%%%%%+$.........@#",
" .........++%&%%%&&%++........@#",
" ........*+%&&%%&&&%%+*.......@#",
" ........*+%&&%%&&&&%+*.......@#",
" ........*+%%&%%&&&%%+*.......@#",
" ........*++%%==%%%%++*.......@#",
" ........*+$++++++++$+*.......@#",
" ........-**$$$$$$$$**-.......@#",
" ......;;--**++++++**--;......@#",
" .......-->-,'),,)',->--;.....@#",
" ....!-----,~{-~~-{~,---......@#",
" ....-],;;-,~'-~~-'~,-;;--....@#",
" . ...-]^{;-,,,~~,,--;...... .@#",
" ......-^/(_-,~~~~>~~!........@#",
" .......-/(_:/]]]]-,~,].......@#",
" ........-/(__/////!,~,]......@#",
" .........-/(/<[/(//!,]!......@#",
" ..........-//<[/((//!!.......@#",
" ...........//<</((//.........@#",
" ...........//!!!///..........@#",
" .........../}(///(/..........@#",
" .........../}}(///...........@#",
" ...........-/}(//............@#",
" ||||||||||-{{/(-||||||||||||||#",
" |111222222-}}--11111111111111|#",
"|||||||||||-(((-3333||||||||||||",
"|44555111111---3333444444444444|",
"|445551111111555545444444444444|",
"||||||||||||||||||||||||||||||||"};
