/* XPM */
static char * player_down_xpm[] = {
"32 32 27 1",
" 	c #21303D",
".	c #2B3B47",
"+	c #394B54",
"@	c #182534",
"#	c #9C2323",
"$	c #C83838",
"%	c #C8C8D8",
"&	c #E8E8F8",
"*	c #5A0C0C",
"=	c #A8A0C8",
"-	c #000000",
";	c #5B5B5B",
">	c #202028",
",	c #F88058",
"'	c #D5D5D5",
")	c #A3A3A3",
"!	c #F8B890",
"~	c #F8F8F8",
"{	c #474751",
"]	c #0078D8",
"^	c #034C86",
"/	c #964A30",
"(	c #AAAAB2",
"_	c #2FAF4B",
":	c #1E8A35",
"<	c #600000",
"[	c #6FB9F4",
"                                ",
" .............................+@",
" . ............##........... .+@",
" ...........$######$..........+@",
" ..........$#%%%%%%#$.........+@",
" .........##%&&%&&&%##........+@",
" ........*#%%&&&%&&%%#*.......+@",
" ........*#%%&&%&&&%%#*.......+@",
" ........*#=%%&%%&%%=#*.......+@",
" ........*##=%%==%%=##*.......+@",
" ........*#$########$#*.......+@",
" ........-**$$$$$$$$**-.......+@",
" ......;;--**######**--;;.....+@",
" .......-->-,'),,)',->--......+@",
" .....-----,!~-!!-~!,-----....+@",
" . .....;;-,!'-!!-'!,-;;.... .+@",
" .........;-,,,!!,,,>;........+@",
" .........>{-,!!!!,-{>........+@",
" ........-]{~^////^~{]>.......+@",
" .......-~^^{{^^^^{{^^~>......+@",
" ......-/((-^]^__^]^^((/-.....+@",
" .....-,,/-.^]^::^]^.-/,,-....+@",
" .....-!,-..^]^::^]^..-!,-....+@",
" .....-!,-..^^^<<^^^..-!,-....+@",
" ......--...^[]]]][^...--.....+@",
" ...........^[]^^][^..........+@",
" ...........^]]^^]]^..........+@",
" ..........-[^^^^^^[-.........+@",
" . ........-~[[--[[~-....... .+@",
" ...........--------..........+@",
" ++++++++++++++++++++++++++++++@",
" @@@@@@@@@@@@@@@@@@@@@@@@@@@@@@@"};
