/* XPM */
static char * player_left_xpm[] = {
"32 32 24 1",
" 	c #21303D",
".	c #2B3B47",
"+	c #394B54",
"@	c #182534",
"#	c #9C2323",
"$	c #5B5B5B",
"%	c #5A0C0C",
"&	c #E8E8F8",
"*	c #C8C8D8",
"=	c #C83838",
"-	c #A8A0C8",
";	c #000000",
">	c #202028",
",	c #F88058",
"'	c #F8F8F8",
")	c #F8B890",
"!	c #A80000",
"~	c #964A30",
"{	c #474751",
"]	c #034C86",
"^	c #0078D8",
"/	c #AAAAB2",
"(	c #6FB9F4",
"_	c #28C0D8",
"                                ",
" .............................+@",
" . ............##........... .+@",
" ...........$$#%%#$$..........+@",
" ..........$&**%%**&$.........+@",
" .........$&*=%##%=*&$........+@",
" ........$&*%##=###%*&$.......+@",
" ........$*-###==###-*$.......+@",
" ........$*%##====##%*$.......+@",
" ......%%%-%#======#%-$.......+@",
" .....%==%%%##====##%-$.......+@",
" .....%%%;%%%######%%%;.......+@",
" .........;;;;>>;;;;;;;$$.....+@",
" .........;,'',;;;;;;;;;......+@",
" .........;,;'))>));>>;;;;....+@",
" . .......;,;'))>,!;>;$$.... .+@",
" .........;),,)))!;;;$........+@",
" ..........>)),,~~;;$.........+@",
" ...........>~~~&{];..........+@",
" ............]]{{^];..........+@",
" ............]]^^]];..........+@",
" ............]^]//];..........+@",
" ............]^]~~];..........+@",
" ............]^],,>;..........+@",
" ............]]],)>;..........+@",
" ............;((>>^;..........+@",
" ...........;;((^^];..........+@",
" ..........;(]]]]]];..........+@",
" . .........;''__^;;........ .+@",
" ............;;;;;;...........+@",
" ++++++++++++++++++++++++++++++@",
" @@@@@@@@@@@@@@@@@@@@@@@@@@@@@@@"};
