/* XPM */
static char * T02_xpm[] = {
"32 32 9 1",
" 	c #21303D",
".	c #2B3B47",
"+	c #394B54",
"@	c #182534",
"#	c #171616",
"$	c #506173",
"%	c #7A8B9B",
"&	c #343C50",
"*	c #404D63",
"                                ",
" .............................+@",
" . ............ ............ .+@",
" .............................+@",
" .............................+@",
" .............................+@",
" .............................+@",
" .............................+@",
" .............................+@",
" .............................+@",
" .............................+@",
" .............................+@",
" .............................+@",
" .............................+@",
" .............................+@",
" . ......................... .+@",
" .............................+@",
" .............................+@",
" .............................+@",
" .............................+@",
" .............................+@",
" .............................+@",
" .............................+@",
" .............................+@",
" .............................+@",
" .............................+@",
" ##############################@",
" #$$$%%%%%%%%$%$$$$$$$$$$$$$$$#@",
"################################",
"#&&***$$$$$$$****&*&&&&&&&&&&&&#",
"#&&***$$$$$$$****&*&&&&&&&&&&&&#",
"################################"};
