/* XPM */
static char * T04_xpm[] = {
"32 32 10 1",
" 	c #21303D",
".	c #2B3B47",
"+	c #394B54",
"@	c #182534",
"#	c #FFFFFF",
"$	c #1B1A1A",
"%	c #60748A",
"&	c #92A6BA",
"*	c #3E4860",
"=	c #4C5C76",
"                                ",
" .............................+@",
" . ............ ............ .+@",
" .............................+@",
" .............................+@",
" .............................+@",
" .............................+@",
" .............................+@",
" .............................+@",
" .............................+@",
" .............................+@",
" .............................+@",
" .............................+@",
" .............................+@",
" .............................+@",
" . ......................... .+@",
" .............................+@",
" .............................+@",
" .............................+@",
" .............................+@",
" .............................+@",
" .............................+@",
" ...#####.#####..#####.#####..+@",
" ..##########################.+@",
" ..##########################.+@",
" .############################+@",
" $$$$$$$$$$$$$$$$$$$$$$$$$$$$$$@",
" $%%%&&&&&&&&%&%%%%%%%%%%%%%%%$@",
"$$$$$$$$$$$$$$$$$$$$$$$$$$$$$$$$",
"$**===%%%%%%%====*=************$",
"$**===%%%%%%%====*=************$",
"$$$$$$$$$$$$$$$$$$$$$$$$$$$$$$$$"};
