/* XPM */
static char * T13_xpm[] = {
"32 32 12 1",
" 	c #21303D",
".	c #2B3B47",
"+	c #394B54",
"@	c #182534",
"#	c #FF0000",
"$	c #F98383",
"%	c #FFFFFF",
"&	c #1B1A1A",
"*	c #60748A",
"=	c #92A6BA",
"-	c #3E4860",
";	c #4C5C76",
"                                ",
" .............................+@",
" . ............ ............ .+@",
" .............................+@",
" .............................+@",
" .............................+@",
" .............................+@",
" .............................+@",
" .............................+@",
" .............................+@",
" .............................+@",
" .............................+@",
" .............................+@",
" .............................+@",
" .............................+@",
" . ......................... .+@",
" .............................+@",
" .....#.....#......#.....#....+@",
" .....#.....#......#.....#....+@",
" ....###...###....###...###...+@",
" ....###...###....###...###...+@",
" ...#$%$#.#$%$#..#$%$#.#$%$#..+@",
" ...#%%%$#$%%%$##$%%%$#$%%%#..+@",
" ..#$%%%%$%%%%%$$%%%%%$%%%%$#.+@",
" ..$$$$$$$$$$$$$$$$$$$$$$$$$$.+@",
" .............................+@",
" &&&&&&&&&&&&&&&&&&&&&&&&&&&&&&@",
" &***========*=***************&@",
"&&&&&&&&&&&&&&&&&&&&&&&&&&&&&&&&",
"&--;;;*******;;;;-;------------&",
"&--;;;*******;;;;-;------------&",
"&&&&&&&&&&&&&&&&&&&&&&&&&&&&&&&&"};
