/* XPM */
static char * top_left_xpm[] = {
"32 32 14 1",
" 	c None",
".	c #000000",
"+	c #DAEFF2",
"@	c #89A7B6",
"#	c #76899D",
"$	c #AE7A32",
"%	c #111111",
"&	c #BEA830",
"*	c #60748A",
"=	c #333B51",
"-	c #3E4860",
";	c #4C5C76",
">	c #282C38",
",	c #FFFFFF",
"   ++@@@@+@++++++++@@@+@@@+++++@",
"  +@############################",
" @@#############################",
"+@#$$$$%%%$$$$$%%%$$$$$%%%$$$$$%",
"@###&&%%%&&&&&%%%&&&&&%%%&&&&&%%",
"********************************",
"*****===========================",
"###**=###@#@@@@#===###@#@@+++##=",
"@##**=****-*****#=*************#",
"@##**=*;**;***;*@=*;***********+",
"@##**=****;*****@=*************@",
"@##**=****;*****@=-;;;;;;;;;***@",
"@##**=-;;;;;;;;-@=****;****-***#",
"###**=******;***#=****;****=====",
"###**=******;***#=*;**;***=#+@+=",
"@##**=#@@***;***#==***-**=**;**+",
"@##**=-**@**;-*===========**;**+",
"@##**=-**#****==**;****-****;**@",
"@##**=-**#****=***;;***;;;;;;-*@",
"@##**==---***==*;**;******;****@",
"@##**==========****;******-****>",
"@##**=##*###==>>>>>>>>>>>>>>>>>>",
"@##**=@******=>@@#@#>>#@#@@####>",
"@##**=#****;*>@******>#***;*****",
"@##**=@;;;***>#;;;***>@-;;;;;;;*",
"@##**=@**;***>#**;;;->>*******-*",
"@##**=#**;;;->#**;***>>>>>>>>>>>",
"@##**=#**;***>#**;***>>;;;;;;;-;",
"###**=***;***>#**;***>;----=----",
"@##**=#-;;***>@-;;;;->--========",
"@##**=#;*-*;*>#******>--=------>",
"###**==**-***>#******>>>>>>>>>>>"};
